<svg width="22" height="22" viewBox="0 0 22 22" fill="none" xmlns="http://www.w3.org/2000/svg">
<path d="M9.86111 20.2061C9.7895 20.4782 9.73579 20.7539 9.69998 21.0332C9.66417 21.3125 9.63911 21.599 9.62479 21.8926C8.70814 21.7852 7.83446 21.5703 7.00375 21.248C6.17304 20.9258 5.4032 20.514 4.69423 20.0127C3.98526 19.5114 3.34075 18.9313 2.76068 18.2725C2.18062 17.6136 1.68649 16.8975 1.27829 16.124C0.870098 15.3506 0.555001 14.5342 0.333 13.6748C0.111 12.8154 0 11.9238 0 11C0 9.99023 0.128903 9.01628 0.38671 8.07812C0.644517 7.13997 1.01332 6.2627 1.49313 5.44629C1.97294 4.62988 2.54584 3.88867 3.21184 3.22266C3.87784 2.55664 4.62262 1.98372 5.44617 1.50391C6.26972 1.02409 7.1434 0.655273 8.0672 0.397461C8.99101 0.139648 9.96853 0.00716146 10.9998 0C12.0095 0 12.9799 0.128906 13.9108 0.386719C14.8418 0.644531 15.7191 1.01693 16.5426 1.50391C17.3662 1.99089 18.1073 2.5638 18.7662 3.22266C19.425 3.88151 20.0015 4.6263 20.4956 5.45703C20.9898 6.28776 21.3586 7.16146 21.6021 8.07812C21.8455 8.99479 21.978 9.96875 21.9995 11H21.2368C21.1366 10.8353 21.0327 10.6742 20.9253 10.5166C20.8179 10.359 20.6926 10.2087 20.5493 10.0654C20.5064 9.44238 20.3954 8.83724 20.2163 8.25H7.05746C7.00017 8.70833 6.9572 9.16309 6.92856 9.61426C6.89991 10.0654 6.88201 10.5273 6.87485 11C6.87485 11.4655 6.88917 11.9238 6.91782 12.375C6.94646 12.8262 6.99301 13.2845 7.05746 13.75H10.9998C10.9998 13.9792 11.0177 14.2083 11.0535 14.4375C11.0893 14.6667 11.1358 14.8958 11.1931 15.125H7.29378C7.37972 15.5332 7.4943 15.9808 7.63753 16.4678C7.78075 16.9548 7.95978 17.431 8.17462 17.8965C8.38946 18.362 8.63653 18.7988 8.91582 19.207C9.19511 19.6152 9.51021 19.9482 9.86111 20.2061ZM19.69 6.875C19.4107 6.29492 19.0813 5.75065 18.7017 5.24219C18.3222 4.73372 17.8925 4.26823 17.4127 3.8457C16.9329 3.42318 16.4244 3.0472 15.8873 2.71777C15.3502 2.38835 14.7702 2.11979 14.1471 1.91211C14.405 2.27018 14.6341 2.64974 14.8346 3.05078C15.0351 3.45182 15.2178 3.86361 15.3825 4.28613C15.5472 4.70866 15.6868 5.13835 15.8014 5.5752C15.916 6.01204 16.0162 6.44531 16.1022 6.875H19.69ZM10.9998 1.375C10.6417 1.375 10.3123 1.47168 10.0115 1.66504C9.71072 1.8584 9.43143 2.11263 9.17362 2.42773C8.91582 2.74284 8.68666 3.09733 8.48614 3.49121C8.28562 3.88509 8.10301 4.28971 7.9383 4.70508C7.77359 5.12044 7.64111 5.51432 7.54085 5.88672C7.44059 6.25911 7.35824 6.58854 7.29378 6.875H14.7057C14.6484 6.5957 14.5661 6.26628 14.4587 5.88672C14.3512 5.50716 14.2188 5.11328 14.0612 4.70508C13.9037 4.29688 13.7246 3.89583 13.5241 3.50195C13.3236 3.10807 13.0944 2.75 12.8366 2.42773C12.5788 2.10547 12.296 1.85124 11.988 1.66504C11.6801 1.47884 11.3507 1.38216 10.9998 1.375ZM7.86311 1.90137C7.2544 2.10905 6.67433 2.37402 6.12291 2.69629C5.57149 3.01855 5.05946 3.39453 4.58681 3.82422C4.11417 4.25391 3.68449 4.72298 3.29778 5.23145C2.91107 5.73991 2.58165 6.28776 2.30952 6.875H5.89733C5.9761 6.48112 6.07278 6.06217 6.18736 5.61816C6.30194 5.17415 6.44517 4.73014 6.61704 4.28613C6.78891 3.84212 6.97511 3.41602 7.17562 3.00781C7.37614 2.59961 7.6053 2.23079 7.86311 1.90137ZM1.37497 11C1.37497 11.9525 1.50745 12.8691 1.77242 13.75H5.67175C5.61446 13.2917 5.57149 12.8369 5.54285 12.3857C5.5142 11.9346 5.49988 11.4727 5.49988 11C5.49988 10.5345 5.5142 10.0762 5.54285 9.625C5.57149 9.17383 5.61446 8.7155 5.67175 8.25H1.77242C1.50745 9.13086 1.37497 10.0475 1.37497 11ZM2.28804 15.125C2.56733 15.7051 2.89675 16.2493 3.27629 16.7578C3.65584 17.2663 4.08552 17.7354 4.56533 18.165C5.04514 18.5947 5.56075 18.9671 6.11217 19.2822C6.66359 19.5973 7.24365 19.8659 7.85236 20.0879C7.59456 19.7298 7.3654 19.3503 7.16488 18.9492C6.96436 18.5482 6.78175 18.1364 6.61704 17.7139C6.45233 17.2913 6.31269 16.8617 6.1981 16.4248C6.08352 15.988 5.97968 15.5547 5.88659 15.125H2.28804ZM18.9273 17.0693C19.3928 17.3057 19.8153 17.5957 20.1949 17.9395C20.5744 18.2832 20.8967 18.6699 21.1616 19.0996C21.4266 19.5293 21.6343 19.9876 21.7847 20.4746C21.9351 20.9616 22.0067 21.4701 21.9995 22H20.6245C20.6245 21.4342 20.5171 20.9007 20.3023 20.3994C20.0874 19.8981 19.7938 19.4613 19.4214 19.0889C19.0491 18.7165 18.6086 18.4193 18.1002 18.1973C17.5917 17.9753 17.0582 17.8678 16.4996 17.875C15.9267 17.875 15.3932 17.9824 14.8991 18.1973C14.405 18.4121 13.9681 18.7057 13.5886 19.0781C13.209 19.4505 12.9118 19.891 12.697 20.3994C12.4821 20.9079 12.3747 21.4414 12.3747 22H10.9998C10.9998 21.4772 11.0714 20.9723 11.2146 20.4854C11.3578 19.9984 11.5619 19.5365 11.8269 19.0996C12.0919 18.6628 12.4141 18.276 12.7937 17.9395C13.1732 17.6029 13.5957 17.3128 14.0612 17.0693C13.5241 16.6826 13.1088 16.1992 12.8151 15.6191C12.5215 15.0391 12.3747 14.416 12.3747 13.75C12.3747 13.1842 12.4821 12.6507 12.697 12.1494C12.9118 11.6481 13.2054 11.2113 13.5778 10.8389C13.9502 10.4665 14.3871 10.1693 14.8883 9.94727C15.3896 9.72526 15.9267 9.61784 16.4996 9.625C17.0654 9.625 17.5989 9.73242 18.1002 9.94727C18.6015 10.1621 19.0383 10.4557 19.4107 10.8281C19.7831 11.2005 20.0803 11.641 20.3023 12.1494C20.5243 12.6579 20.6317 13.1914 20.6245 13.75C20.6245 14.4089 20.4777 15.0283 20.1841 15.6084C19.8905 16.1885 19.4716 16.6755 18.9273 17.0693ZM16.4996 16.5C16.8792 16.5 17.2337 16.4284 17.5631 16.2852C17.8925 16.1419 18.1861 15.945 18.4439 15.6943C18.7017 15.4437 18.8987 15.1536 19.0347 14.8242C19.1708 14.4948 19.2424 14.1367 19.2496 13.75C19.2496 13.3704 19.178 13.016 19.0347 12.6865C18.8915 12.3571 18.6946 12.0635 18.4439 11.8057C18.1933 11.5479 17.9032 11.3509 17.5738 11.2148C17.2444 11.0788 16.8863 11.0072 16.4996 11C16.1201 11 15.7656 11.0716 15.4362 11.2148C15.1068 11.3581 14.8131 11.555 14.5553 11.8057C14.2975 12.0563 14.1006 12.3464 13.9645 12.6758C13.8285 13.0052 13.7569 13.3633 13.7497 13.75C13.7497 14.1296 13.8213 14.484 13.9645 14.8135C14.1078 15.1429 14.3047 15.4365 14.5553 15.6943C14.806 15.9521 15.096 16.1491 15.4254 16.2852C15.7549 16.4212 16.1129 16.4928 16.4996 16.5Z" fill="white"/>
</svg>
